<svg width="744" height="160" viewBox="0 0 744 160" fill="none" xmlns="http://www.w3.org/2000/svg">
<rect x="127.5" y="57.5" width="87" height="47" rx="5.5" stroke="#222222" stroke-width="3"/>
<rect id="fetch-start" x="101.5" y="27.5" width="12" height="103" rx="5.5" fill="#60A5FA" stroke="#222222" stroke-width="3"/>
<rect x="259.5" y="57.5" width="87" height="47" rx="5.5" stroke="#222222" stroke-width="3"/>
<rect id="decode-start" x="233.5" y="27.5" width="12" height="103" rx="5.5" fill="#34D399" stroke="#222222" stroke-width="3"/>
<rect x="391.5" y="57.5" width="87" height="47" rx="5.5" stroke="#222222" stroke-width="3"/>
<rect id="execute-start" x="365.5" y="27.5" width="12" height="103" rx="5.5" fill="#F59E0B" stroke="#222222" stroke-width="3"/>
<rect x="523.5" y="57.5" width="87" height="47" rx="5.5" stroke="#222222" stroke-width="3"/>
<rect id="memory-start" x="497.5" y="27.5" width="12" height="103" rx="5.5" fill="#EC4899" stroke="#222222" stroke-width="3"/>
<rect x="655.5" y="57.5" width="87" height="47" rx="5.5" stroke="#222222" stroke-width="3"/>
<rect id="writeback-start" x="629.5" y="27.5" width="12" height="103" rx="5.5" fill="#8B5CF6" stroke="#222222" stroke-width="3"/>
<rect x="1.5" y="56.5" width="87" height="47" rx="5.5" stroke="#222222" stroke-width="3"/>
<path d="M148.933 85V75.5455H154.989V76.9812H150.645V79.5479H154.574V80.9837H150.645V85H148.933ZM156.55 85V75.5455H162.699V76.9812H158.262V79.5479H162.38V80.9837H158.262V83.5643H162.736V85H156.55ZM164.031 76.9812V75.5455H171.574V76.9812H168.652V85H166.953V76.9812H164.031ZM180.702 78.7354H178.975C178.926 78.4523 178.835 78.2015 178.703 77.983C178.571 77.7614 178.406 77.5736 178.209 77.4197C178.012 77.2659 177.787 77.1504 177.535 77.0735C177.286 76.9935 177.016 76.9535 176.727 76.9535C176.213 76.9535 175.758 77.0827 175.361 77.3413C174.964 77.5967 174.653 77.9722 174.428 78.4677C174.204 78.9601 174.091 79.5618 174.091 80.2727C174.091 80.996 174.204 81.6054 174.428 82.1009C174.656 82.5933 174.967 82.9657 175.361 83.218C175.758 83.4673 176.212 83.592 176.723 83.592C177.006 83.592 177.27 83.555 177.517 83.4812C177.766 83.4042 177.989 83.2919 178.186 83.1442C178.386 82.9964 178.554 82.8149 178.689 82.5994C178.828 82.384 178.923 82.1378 178.975 81.8608L180.702 81.87C180.637 82.3194 180.497 82.741 180.282 83.1349C180.07 83.5289 179.791 83.8767 179.446 84.1783C179.102 84.4768 178.698 84.7107 178.237 84.88C177.775 85.0462 177.263 85.1293 176.699 85.1293C175.869 85.1293 175.127 84.9369 174.474 84.5522C173.822 84.1675 173.308 83.612 172.932 82.8857C172.557 82.1593 172.369 81.2884 172.369 80.2727C172.369 79.254 172.559 78.383 172.937 77.6598C173.316 76.9335 173.831 76.378 174.484 75.9933C175.136 75.6085 175.875 75.4162 176.699 75.4162C177.226 75.4162 177.715 75.4901 178.168 75.6378C178.62 75.7855 179.023 76.0025 179.377 76.2887C179.731 76.5719 180.022 76.9196 180.25 77.332C180.48 77.7414 180.631 78.2092 180.702 78.7354ZM182.27 85V75.5455H183.983V79.5479H188.364V75.5455H190.081V85H188.364V80.9837H183.983V85H182.27Z" fill="#222222"/>
<path d="M277.136 85H273.933V75.5455H277.201C278.14 75.5455 278.946 75.7347 279.62 76.1133C280.297 76.4888 280.817 77.0289 281.18 77.7337C281.544 78.4384 281.725 79.2817 281.725 80.2635C281.725 81.2483 281.542 82.0947 281.176 82.8026C280.813 83.5104 280.288 84.0536 279.602 84.4322C278.918 84.8107 278.097 85 277.136 85ZM275.645 83.5181H277.053C277.712 83.5181 278.261 83.3981 278.701 83.158C279.141 82.9149 279.472 82.5533 279.694 82.0732C279.915 81.59 280.026 80.9867 280.026 80.2635C280.026 79.5402 279.915 78.9401 279.694 78.4631C279.472 77.983 279.145 77.6244 278.711 77.3874C278.28 77.1474 277.744 77.0273 277.104 77.0273H275.645V83.5181ZM283.352 85V75.5455H289.502V76.9812H285.065V79.5479H289.183V80.9837H285.065V83.5643H289.539V85H283.352ZM299.342 78.7354H297.615C297.566 78.4523 297.475 78.2015 297.343 77.983C297.21 77.7614 297.046 77.5736 296.849 77.4197C296.652 77.2659 296.427 77.1504 296.175 77.0735C295.925 76.9935 295.656 76.9535 295.367 76.9535C294.853 76.9535 294.397 77.0827 294 77.3413C293.603 77.5967 293.292 77.9722 293.068 78.4677C292.843 78.9601 292.731 79.5618 292.731 80.2727C292.731 80.996 292.843 81.6054 293.068 82.1009C293.296 82.5933 293.606 82.9657 294 83.218C294.397 83.4673 294.851 83.592 295.362 83.592C295.645 83.592 295.91 83.555 296.156 83.4812C296.406 83.4042 296.629 83.2919 296.826 83.1442C297.026 82.9964 297.193 82.8149 297.329 82.5994C297.467 82.384 297.563 82.1378 297.615 81.8608L299.342 81.87C299.277 82.3194 299.137 82.741 298.922 83.1349C298.709 83.5289 298.431 83.8767 298.086 84.1783C297.741 84.4768 297.338 84.7107 296.876 84.88C296.415 85.0462 295.902 85.1293 295.339 85.1293C294.508 85.1293 293.766 84.9369 293.114 84.5522C292.462 84.1675 291.948 83.612 291.572 82.8857C291.197 82.1593 291.009 81.2884 291.009 80.2727C291.009 79.254 291.198 78.383 291.577 77.6598C291.955 76.9335 292.471 76.378 293.123 75.9933C293.776 75.6085 294.514 75.4162 295.339 75.4162C295.865 75.4162 296.355 75.4901 296.807 75.6378C297.26 75.7855 297.663 76.0025 298.017 76.2887C298.371 76.5719 298.661 76.9196 298.889 77.332C299.12 77.7414 299.271 78.2092 299.342 78.7354ZM309.358 80.2727C309.358 81.2914 309.167 82.1639 308.786 82.8903C308.407 83.6135 307.89 84.1675 307.235 84.5522C306.582 84.9369 305.842 85.1293 305.014 85.1293C304.186 85.1293 303.445 84.9369 302.789 84.5522C302.137 84.1644 301.619 83.6089 301.238 82.8857C300.859 82.1593 300.67 81.2884 300.67 80.2727C300.67 79.254 300.859 78.383 301.238 77.6598C301.619 76.9335 302.137 76.378 302.789 75.9933C303.445 75.6085 304.186 75.4162 305.014 75.4162C305.842 75.4162 306.582 75.6085 307.235 75.9933C307.89 76.378 308.407 76.9335 308.786 77.6598C309.167 78.383 309.358 79.254 309.358 80.2727ZM307.636 80.2727C307.636 79.5556 307.524 78.9509 307.299 78.4585C307.078 77.9629 306.77 77.589 306.376 77.3366C305.982 77.0812 305.528 76.9535 305.014 76.9535C304.5 76.9535 304.046 77.0812 303.652 77.3366C303.258 77.589 302.949 77.9629 302.724 78.4585C302.503 78.9509 302.392 79.5556 302.392 80.2727C302.392 80.9898 302.503 81.5961 302.724 82.0916C302.949 82.584 303.258 82.958 303.652 83.2134C304.046 83.4658 304.5 83.592 305.014 83.592C305.528 83.592 305.982 83.4658 306.376 83.2134C306.77 82.958 307.078 82.584 307.299 82.0916C307.524 81.5961 307.636 80.9898 307.636 80.2727ZM314.181 85H310.977V75.5455H314.246C315.185 75.5455 315.991 75.7347 316.665 76.1133C317.342 76.4888 317.862 77.0289 318.225 77.7337C318.588 78.4384 318.77 79.2817 318.77 80.2635C318.77 81.2483 318.587 82.0947 318.221 82.8026C317.858 83.5104 317.333 84.0536 316.646 84.4322C315.963 84.8107 315.142 85 314.181 85ZM312.69 83.5181H314.098C314.757 83.5181 315.306 83.3981 315.746 83.158C316.186 82.9149 316.517 82.5533 316.739 82.0732C316.96 81.59 317.071 80.9867 317.071 80.2635C317.071 79.5402 316.96 78.9401 316.739 78.4631C316.517 77.983 316.189 77.6244 315.756 77.3874C315.325 77.1474 314.789 77.0273 314.149 77.0273H312.69V83.5181ZM320.397 85V75.5455H326.547V76.9812H322.11V79.5479H326.228V80.9837H322.11V83.5643H326.583V85H320.397Z" fill="#222222"/>
<path d="M405.933 85V75.5455H412.082V76.9812H407.645V79.5479H411.763V80.9837H407.645V83.5643H412.119V85H405.933ZM415.26 75.5455L417.342 79.0078H417.416L419.507 75.5455H421.46L418.547 80.2727L421.506 85H419.521L417.416 81.5607H417.342L415.237 85H413.261L416.248 80.2727L413.298 75.5455H415.26ZM422.805 85V75.5455H428.954V76.9812H424.517V79.5479H428.635V80.9837H424.517V83.5643H428.991V85H422.805ZM438.794 78.7354H437.067C437.018 78.4523 436.927 78.2015 436.795 77.983C436.662 77.7614 436.498 77.5736 436.301 77.4197C436.104 77.2659 435.879 77.1504 435.627 77.0735C435.378 76.9935 435.108 76.9535 434.819 76.9535C434.305 76.9535 433.85 77.0827 433.453 77.3413C433.055 77.5967 432.745 77.9722 432.52 78.4677C432.295 78.9601 432.183 79.5618 432.183 80.2727C432.183 80.996 432.295 81.6054 432.52 82.1009C432.748 82.5933 433.059 82.9657 433.453 83.218C433.85 83.4673 434.303 83.592 434.814 83.592C435.098 83.592 435.362 83.555 435.608 83.4812C435.858 83.4042 436.081 83.2919 436.278 83.1442C436.478 82.9964 436.646 82.8149 436.781 82.5994C436.919 82.384 437.015 82.1378 437.067 81.8608L438.794 81.87C438.729 82.3194 438.589 82.741 438.374 83.1349C438.161 83.5289 437.883 83.8767 437.538 84.1783C437.193 84.4768 436.79 84.7107 436.329 84.88C435.867 85.0462 435.354 85.1293 434.791 85.1293C433.96 85.1293 433.219 84.9369 432.566 84.5522C431.914 84.1675 431.4 83.612 431.024 82.8857C430.649 82.1593 430.461 81.2884 430.461 80.2727C430.461 79.254 430.65 78.383 431.029 77.6598C431.407 76.9335 431.923 76.378 432.575 75.9933C433.228 75.6085 433.966 75.4162 434.791 75.4162C435.318 75.4162 435.807 75.4901 436.259 75.6378C436.712 75.7855 437.115 76.0025 437.469 76.2887C437.823 76.5719 438.114 76.9196 438.341 77.332C438.572 77.7414 438.723 78.2092 438.794 78.7354ZM446.322 75.5455H448.035V81.7223C448.035 82.3994 447.875 82.9949 447.555 83.5089C447.238 84.0228 446.791 84.4245 446.216 84.7138C445.64 85 444.968 85.1431 444.199 85.1431C443.426 85.1431 442.752 85 442.176 84.7138C441.601 84.4245 441.155 84.0228 440.838 83.5089C440.521 82.9949 440.362 82.3994 440.362 81.7223V75.5455H442.075V81.5792C442.075 81.9731 442.161 82.324 442.333 82.6317C442.509 82.9395 442.755 83.1811 443.072 83.3565C443.389 83.5289 443.765 83.6151 444.199 83.6151C444.632 83.6151 445.008 83.5289 445.325 83.3565C445.645 83.1811 445.891 82.9395 446.064 82.6317C446.236 82.324 446.322 81.9731 446.322 81.5792V75.5455ZM449.481 76.9812V75.5455H457.024V76.9812H454.102V85H452.403V76.9812H449.481ZM458.478 85V75.5455H464.628V76.9812H460.191V79.5479H464.309V80.9837H460.191V83.5643H464.665V85H458.478Z" fill="#222222"/>
<path d="M537.933 75.5455H540.028L542.835 82.3963H542.946L545.753 75.5455H547.849V85H546.205V78.5046H546.118L543.505 84.9723H542.277L539.664 78.4908H539.576V85H537.933V75.5455ZM549.714 85V75.5455H555.863V76.9812H551.426V79.5479H555.544V80.9837H551.426V83.5643H555.9V85H549.714ZM557.61 75.5455H559.706L562.513 82.3963H562.624L565.431 75.5455H567.526V85H565.883V78.5046H565.795L563.182 84.9723H561.954L559.341 78.4908H559.254V85H557.61V75.5455ZM577.84 80.2727C577.84 81.2914 577.649 82.1639 577.267 82.8903C576.889 83.6135 576.372 84.1675 575.716 84.5522C575.064 84.9369 574.323 85.1293 573.496 85.1293C572.668 85.1293 571.926 84.9369 571.27 84.5522C570.618 84.1644 570.101 83.6089 569.719 82.8857C569.341 82.1593 569.151 81.2884 569.151 80.2727C569.151 79.254 569.341 78.383 569.719 77.6598C570.101 76.9335 570.618 76.378 571.27 75.9933C571.926 75.6085 572.668 75.4162 573.496 75.4162C574.323 75.4162 575.064 75.6085 575.716 75.9933C576.372 76.378 576.889 76.9335 577.267 77.6598C577.649 78.383 577.84 79.254 577.84 80.2727ZM576.118 80.2727C576.118 79.5556 576.005 78.9509 575.781 78.4585C575.559 77.9629 575.251 77.589 574.857 77.3366C574.463 77.0812 574.01 76.9535 573.496 76.9535C572.982 76.9535 572.528 77.0812 572.134 77.3366C571.74 77.589 571.43 77.9629 571.206 78.4585C570.984 78.9509 570.873 79.5556 570.873 80.2727C570.873 80.9898 570.984 81.5961 571.206 82.0916C571.43 82.584 571.74 82.958 572.134 83.2134C572.528 83.4658 572.982 83.592 573.496 83.592C574.01 83.592 574.463 83.4658 574.857 83.2134C575.251 82.958 575.559 82.584 575.781 82.0916C576.005 81.5961 576.118 80.9898 576.118 80.2727ZM579.459 85V75.5455H583.004C583.731 75.5455 584.34 75.6716 584.832 75.924C585.328 76.1764 585.702 76.5303 585.954 76.9858C586.21 77.4382 586.337 77.966 586.337 78.5692C586.337 79.1755 586.208 79.7018 585.95 80.1481C585.694 80.5913 585.317 80.9344 584.819 81.1776C584.32 81.4176 583.708 81.5376 582.981 81.5376H580.456V80.1158H582.75C583.175 80.1158 583.523 80.0573 583.794 79.9403C584.065 79.8203 584.265 79.6464 584.394 79.4187C584.526 79.1879 584.592 78.9047 584.592 78.5692C584.592 78.2338 584.526 77.9476 584.394 77.7106C584.262 77.4705 584.06 77.2889 583.789 77.1658C583.518 77.0397 583.169 76.9766 582.741 76.9766H581.172V85H579.459ZM584.343 80.7159L586.684 85H584.772L582.473 80.7159H584.343ZM586.9 75.5455H588.834L591.147 79.728H591.239L593.552 75.5455H595.486L592.047 81.473V85H590.339V81.473L586.9 75.5455Z" fill="#222222"/>
<path d="M661.922 85L659.254 75.5455H661.096L662.799 82.4933H662.887L664.706 75.5455H666.382L668.205 82.4979H668.288L669.992 75.5455H671.834L669.165 85H667.476L665.583 78.3661H665.509L663.612 85H661.922ZM673.021 85V75.5455H676.567C677.293 75.5455 677.903 75.6716 678.395 75.924C678.89 76.1764 679.264 76.5303 679.517 76.9858C679.772 77.4382 679.9 77.966 679.9 78.5692C679.9 79.1755 679.771 79.7018 679.512 80.1481C679.257 80.5913 678.88 80.9344 678.381 81.1776C677.883 81.4176 677.27 81.5376 676.544 81.5376H674.019V80.1158H676.313C676.738 80.1158 677.085 80.0573 677.356 79.9403C677.627 79.8203 677.827 79.6464 677.956 79.4187C678.089 79.1879 678.155 78.9047 678.155 78.5692C678.155 78.2338 678.089 77.9476 677.956 77.7106C677.824 77.4705 677.622 77.2889 677.352 77.1658C677.081 77.0397 676.732 76.9766 676.304 76.9766H674.734V85H673.021ZM677.906 80.7159L680.246 85H678.335L676.036 80.7159H677.906ZM683.189 75.5455V85H681.476V75.5455H683.189ZM684.628 76.9812V75.5455H692.172V76.9812H689.249V85H687.551V76.9812H684.628ZM693.626 85V75.5455H699.775V76.9812H695.339V79.5479H699.456V80.9837H695.339V83.5643H699.812V85H693.626ZM701.522 85V75.5455H705.142C705.825 75.5455 706.393 75.6532 706.845 75.8686C707.301 76.081 707.641 76.3718 707.865 76.7411C708.093 77.1104 708.207 77.529 708.207 77.9968C708.207 78.3815 708.133 78.7108 707.985 78.9847C707.838 79.2556 707.639 79.4756 707.39 79.6449C707.141 79.8142 706.862 79.9357 706.554 80.0096V80.1019C706.89 80.1204 707.211 80.2235 707.519 80.4112C707.83 80.5959 708.084 80.8575 708.281 81.196C708.478 81.5346 708.576 81.9439 708.576 82.424C708.576 82.9134 708.458 83.3535 708.221 83.7443C707.984 84.1321 707.627 84.4383 707.15 84.663C706.673 84.8877 706.073 85 705.349 85H701.522ZM703.235 83.5689H705.077C705.699 83.5689 706.147 83.4504 706.42 83.2134C706.697 82.9734 706.836 82.6656 706.836 82.2901C706.836 82.0101 706.767 81.7577 706.628 81.533C706.49 81.3053 706.293 81.1268 706.037 80.9975C705.782 80.8652 705.477 80.799 705.123 80.799H703.235V83.5689ZM703.235 79.5664H704.929C705.225 79.5664 705.491 79.5125 705.728 79.4048C705.965 79.294 706.151 79.1386 706.287 78.9386C706.425 78.7354 706.494 78.4954 706.494 78.2184C706.494 77.8522 706.365 77.5505 706.107 77.3136C705.851 77.0766 705.471 76.9581 704.966 76.9581H703.235V79.5664ZM711.28 85H709.452L712.781 75.5455H714.895L718.228 85H716.4L713.875 77.4844H713.801L711.28 85ZM711.34 81.293H716.326V82.6687H711.34V81.293ZM727.122 78.7354H725.395C725.346 78.4523 725.255 78.2015 725.123 77.983C724.991 77.7614 724.826 77.5736 724.629 77.4197C724.432 77.2659 724.207 77.1504 723.955 77.0735C723.706 76.9935 723.436 76.9535 723.147 76.9535C722.633 76.9535 722.178 77.0827 721.781 77.3413C721.384 77.5967 721.073 77.9722 720.848 78.4677C720.623 78.9601 720.511 79.5618 720.511 80.2727C720.511 80.996 720.623 81.6054 720.848 82.1009C721.076 82.5933 721.387 82.9657 721.781 83.218C722.178 83.4673 722.632 83.592 723.142 83.592C723.426 83.592 723.69 83.555 723.937 83.4812C724.186 83.4042 724.409 83.2919 724.606 83.1442C724.806 82.9964 724.974 82.8149 725.109 82.5994C725.248 82.384 725.343 82.1378 725.395 81.8608L727.122 81.87C727.057 82.3194 726.917 82.741 726.702 83.1349C726.489 83.5289 726.211 83.8767 725.866 84.1783C725.522 84.4768 725.118 84.7107 724.657 84.88C724.195 85.0462 723.683 85.1293 723.119 85.1293C722.288 85.1293 721.547 84.9369 720.894 84.5522C720.242 84.1675 719.728 83.612 719.352 82.8857C718.977 82.1593 718.789 81.2884 718.789 80.2727C718.789 79.254 718.978 78.383 719.357 77.6598C719.736 76.9335 720.251 76.378 720.903 75.9933C721.556 75.6085 722.295 75.4162 723.119 75.4162C723.646 75.4162 724.135 75.4901 724.587 75.6378C725.04 75.7855 725.443 76.0025 725.797 76.2887C726.151 76.5719 726.442 76.9196 726.669 77.332C726.9 77.7414 727.051 78.2092 727.122 78.7354ZM728.69 85V75.5455H730.403V79.8896H730.518L734.207 75.5455H736.298L732.642 79.788L736.331 85H734.272L731.451 80.9467L730.403 82.1839V85H728.69Z" fill="#222222"/>
<path d="M18.7441 77V67.5455H22.3634C23.0466 67.5455 23.6144 67.6532 24.0669 67.8686C24.5223 68.081 24.8624 68.3718 25.0871 68.7411C25.3148 69.1104 25.4287 69.529 25.4287 69.9968C25.4287 70.3815 25.3548 70.7108 25.2071 70.9847C25.0594 71.2556 24.8609 71.4756 24.6116 71.6449C24.3623 71.8142 24.0838 71.9357 23.776 72.0096V72.1019C24.1115 72.1204 24.4331 72.2235 24.7409 72.4112C25.0517 72.5959 25.3056 72.8575 25.5026 73.196C25.6995 73.5346 25.798 73.9439 25.798 74.424C25.798 74.9134 25.6795 75.3535 25.4426 75.7443C25.2056 76.1321 24.8486 76.4383 24.3715 76.663C23.8945 76.8877 23.2944 77 22.5711 77H18.7441ZM20.4568 75.5689H22.2987C22.9204 75.5689 23.3682 75.4504 23.6421 75.2134C23.9191 74.9734 24.0576 74.6656 24.0576 74.2901C24.0576 74.0101 23.9884 73.7577 23.8499 73.533C23.7114 73.3053 23.5144 73.1268 23.259 72.9975C23.0035 72.8652 22.6988 72.799 22.3449 72.799H20.4568V75.5689ZM20.4568 71.5664H22.151C22.4465 71.5664 22.7127 71.5125 22.9497 71.4048C23.1866 71.294 23.3728 71.1386 23.5083 70.9386C23.6468 70.7354 23.716 70.4954 23.716 70.2184C23.716 69.8522 23.5867 69.5505 23.3282 69.3136C23.0728 69.0766 22.6927 68.9581 22.1879 68.9581H20.4568V71.5664ZM27.288 77V67.5455H30.8335C31.5598 67.5455 32.1692 67.6716 32.6616 67.924C33.1571 68.1764 33.531 68.5303 33.7834 68.9858C34.0388 69.4382 34.1665 69.966 34.1665 70.5692C34.1665 71.1755 34.0373 71.7018 33.7788 72.1481C33.5233 72.5913 33.1463 72.9344 32.6477 73.1776C32.1491 73.4176 31.5367 73.5376 30.8104 73.5376H28.2852V72.1158H30.5795C31.0043 72.1158 31.352 72.0573 31.6229 71.9403C31.8937 71.8203 32.0938 71.6464 32.223 71.4187C32.3554 71.1879 32.4215 70.9047 32.4215 70.5692C32.4215 70.2338 32.3554 69.9476 32.223 69.7106C32.0907 69.4705 31.8891 69.2889 31.6183 69.1658C31.3474 69.0397 30.9981 68.9766 30.5703 68.9766H29.0007V77H27.288ZM32.1722 72.7159L34.5128 77H32.6016L30.3026 72.7159H32.1722ZM36.9572 77H35.1291L38.4576 67.5455H40.5719L43.905 77H42.0769L39.5517 69.4844H39.4778L36.9572 77ZM37.0172 73.293H42.003V74.6687H37.0172V73.293ZM52.9198 67.5455V77H51.3964L46.9415 70.56H46.863V77H45.1503V67.5455H46.683L51.1333 73.9901H51.2164V67.5455H52.9198ZM62.8787 70.7354H61.1522C61.1029 70.4523 61.0121 70.2015 60.8798 69.983C60.7475 69.7614 60.5828 69.5736 60.3858 69.4197C60.1889 69.2659 59.9642 69.1504 59.7118 69.0735C59.4625 68.9935 59.1932 68.9535 58.9039 68.9535C58.39 68.9535 57.9345 69.0827 57.5375 69.3413C57.1404 69.5967 56.8296 69.9722 56.6049 70.4677C56.3803 70.9601 56.2679 71.5618 56.2679 72.2727C56.2679 72.996 56.3803 73.6054 56.6049 74.1009C56.8327 74.5933 57.1435 74.9657 57.5375 75.218C57.9345 75.4673 58.3884 75.592 58.8993 75.592C59.1825 75.592 59.4471 75.555 59.6934 75.4812C59.9426 75.4042 60.1658 75.2919 60.3627 75.1442C60.5628 74.9964 60.7305 74.8149 60.8659 74.5994C61.0044 74.384 61.0998 74.1378 61.1522 73.8608L62.8787 73.87C62.8141 74.3194 62.6741 74.741 62.4586 75.1349C62.2463 75.5289 61.9677 75.8767 61.623 76.1783C61.2784 76.4768 60.8752 76.7107 60.4135 76.88C59.9519 77.0462 59.4395 77.1293 58.8762 77.1293C58.0453 77.1293 57.3036 76.9369 56.6511 76.5522C55.9986 76.1675 55.4847 75.612 55.1092 74.8857C54.7337 74.1593 54.546 73.2884 54.546 72.2727C54.546 71.254 54.7353 70.383 55.1138 69.6598C55.4924 68.9335 56.0079 68.378 56.6603 67.9933C57.3128 67.6085 58.0514 67.4162 58.8762 67.4162C59.4025 67.4162 59.8919 67.4901 60.3443 67.6378C60.7967 67.7855 61.1999 68.0025 61.5538 68.2887C61.9077 68.5719 62.1986 68.9196 62.4263 69.332C62.6571 69.7414 62.8079 70.2092 62.8787 70.7354ZM64.4472 77V67.5455H66.1599V71.5479H70.5409V67.5455H72.2583V77H70.5409V72.9837H66.1599V77H64.4472ZM9.40665 93V83.5455H12.9521C13.6784 83.5455 14.2878 83.6809 14.7802 83.9517C15.2757 84.2225 15.6497 84.5949 15.902 85.0689C16.1575 85.5398 16.2852 86.0753 16.2852 86.6754C16.2852 87.2817 16.1575 87.8203 15.902 88.2912C15.6466 88.7621 15.2696 89.1329 14.771 89.4038C14.2724 89.6715 13.6584 89.8054 12.929 89.8054H10.5792V88.3974H12.6982C13.1229 88.3974 13.4707 88.3235 13.7415 88.1758C14.0124 88.0281 14.2124 87.8249 14.3417 87.5664C14.474 87.3079 14.5402 87.0109 14.5402 86.6754C14.5402 86.34 14.474 86.0445 14.3417 85.7891C14.2124 85.5336 14.0108 85.3351 13.7369 85.1935C13.4661 85.0489 13.1168 84.9766 12.689 84.9766H11.1194V93H9.40665ZM17.7729 93V83.5455H21.3183C22.0446 83.5455 22.654 83.6716 23.1464 83.924C23.6419 84.1764 24.0159 84.5303 24.2682 84.9858C24.5237 85.4382 24.6514 85.966 24.6514 86.5692C24.6514 87.1755 24.5222 87.7018 24.2636 88.1481C24.0082 88.5913 23.6312 88.9344 23.1326 89.1776C22.634 89.4176 22.0216 89.5376 21.2952 89.5376H18.77V88.1158H21.0644C21.4891 88.1158 21.8369 88.0573 22.1077 87.9403C22.3786 87.8203 22.5786 87.6464 22.7079 87.4187C22.8402 87.1879 22.9064 86.9047 22.9064 86.5692C22.9064 86.2338 22.8402 85.9476 22.7079 85.7106C22.5755 85.4705 22.3739 85.2889 22.1031 85.1658C21.8323 85.0397 21.483 84.9766 21.0552 84.9766H19.4856V93H17.7729ZM22.6571 88.7159L24.9976 93H23.0864L20.7874 88.7159H22.6571ZM26.2279 93V83.5455H32.3771V84.9812H27.9407V87.5479H32.0585V88.9837H27.9407V91.5643H32.414V93H26.2279ZM37.3283 93H34.1244V83.5455H37.3929C38.3316 83.5455 39.1379 83.7347 39.8119 84.1133C40.489 84.4888 41.0091 85.0289 41.3723 85.7337C41.7355 86.4384 41.917 87.2817 41.917 88.2635C41.917 89.2483 41.7339 90.0947 41.3677 90.8026C41.0045 91.5104 40.4798 92.0536 39.7935 92.4322C39.1102 92.8107 38.2885 93 37.3283 93ZM35.8371 91.5181H37.2452C37.9038 91.5181 38.4531 91.3981 38.8932 91.158C39.3333 90.9149 39.6642 90.5533 39.8858 90.0732C40.1074 89.59 40.2182 88.9867 40.2182 88.2635C40.2182 87.5402 40.1074 86.9401 39.8858 86.4631C39.6642 85.983 39.3364 85.6244 38.9025 85.3874C38.4716 85.1474 37.9361 85.0273 37.2959 85.0273H35.8371V91.5181ZM45.2571 83.5455V93H43.5443V83.5455H45.2571ZM55.2044 86.7354H53.4779C53.4286 86.4523 53.3378 86.2015 53.2055 85.983C53.0731 85.7614 52.9085 85.5736 52.7115 85.4197C52.5145 85.2659 52.2899 85.1504 52.0375 85.0735C51.7882 84.9935 51.5189 84.9535 51.2296 84.9535C50.7157 84.9535 50.2602 85.0827 49.8631 85.3413C49.4661 85.5967 49.1553 85.9722 48.9306 86.4677C48.706 86.9601 48.5936 87.5618 48.5936 88.2727C48.5936 88.996 48.706 89.6054 48.9306 90.1009C49.1584 90.5933 49.4692 90.9657 49.8631 91.218C50.2602 91.4673 50.7141 91.592 51.225 91.592C51.5082 91.592 51.7728 91.555 52.019 91.4812C52.2683 91.4042 52.4915 91.2919 52.6884 91.1442C52.8885 90.9964 53.0562 90.8149 53.1916 90.5994C53.3301 90.384 53.4255 90.1378 53.4779 89.8608L55.2044 89.87C55.1398 90.3194 54.9997 90.741 54.7843 91.1349C54.572 91.5289 54.2934 91.8767 53.9487 92.1783C53.604 92.4768 53.2009 92.7107 52.7392 92.88C52.2776 93.0462 51.7651 93.1293 51.2019 93.1293C50.371 93.1293 49.6292 92.9369 48.9768 92.5522C48.3243 92.1675 47.8104 91.612 47.4349 90.8857C47.0594 90.1593 46.8717 89.2884 46.8717 88.2727C46.8717 87.254 47.0609 86.383 47.4395 85.6598C47.818 84.9335 48.3336 84.378 48.986 83.9933C49.6385 83.6085 50.3771 83.4162 51.2019 83.4162C51.7282 83.4162 52.2176 83.4901 52.67 83.6378C53.1224 83.7855 53.5256 84.0025 53.8795 84.2887C54.2334 84.5719 54.5243 84.9196 54.752 85.332C54.9828 85.7414 55.1336 86.2092 55.2044 86.7354ZM56.3574 84.9812V83.5455H63.9007V84.9812H60.9785V93H59.2796V84.9812H56.3574ZM73.3841 88.2727C73.3841 89.2914 73.1933 90.1639 72.8117 90.8903C72.4331 91.6135 71.9161 92.1675 71.2605 92.5522C70.6081 92.9369 69.8679 93.1293 69.04 93.1293C68.2121 93.1293 67.4704 92.9369 66.8149 92.5522C66.1624 92.1644 65.6453 91.6089 65.2637 90.8857C64.8852 90.1593 64.6959 89.2884 64.6959 88.2727C64.6959 87.254 64.8852 86.383 65.2637 85.6598C65.6453 84.9335 66.1624 84.378 66.8149 83.9933C67.4704 83.6085 68.2121 83.4162 69.04 83.4162C69.8679 83.4162 70.6081 83.6085 71.2605 83.9933C71.9161 84.378 72.4331 84.9335 72.8117 85.6598C73.1933 86.383 73.3841 87.254 73.3841 88.2727ZM71.6622 88.2727C71.6622 87.5556 71.5498 86.9509 71.3252 86.4585C71.1036 85.9629 70.7958 85.589 70.4019 85.3366C70.0079 85.0812 69.554 84.9535 69.04 84.9535C68.526 84.9535 68.0721 85.0812 67.6781 85.3366C67.2842 85.589 66.9749 85.9629 66.7502 86.4585C66.5286 86.9509 66.4178 87.5556 66.4178 88.2727C66.4178 88.9898 66.5286 89.5961 66.7502 90.0916C66.9749 90.584 67.2842 90.958 67.6781 91.2134C68.0721 91.4658 68.526 91.592 69.04 91.592C69.554 91.592 70.0079 91.4658 70.4019 91.2134C70.7958 90.958 71.1036 90.584 71.3252 90.0916C71.5498 89.5961 71.6622 88.9898 71.6622 88.2727ZM75.0033 93V83.5455H78.5488C79.2751 83.5455 79.8845 83.6716 80.3769 83.924C80.8724 84.1764 81.2463 84.5303 81.4987 84.9858C81.7542 85.4382 81.8819 85.966 81.8819 86.5692C81.8819 87.1755 81.7526 87.7018 81.4941 88.1481C81.2387 88.5913 80.8616 88.9344 80.3631 89.1776C79.8645 89.4176 79.252 89.5376 78.5257 89.5376H76.0005V88.1158H78.2949C78.7196 88.1158 79.0674 88.0573 79.3382 87.9403C79.609 87.8203 79.8091 87.6464 79.9383 87.4187C80.0707 87.1879 80.1369 86.9047 80.1369 86.5692C80.1369 86.2338 80.0707 85.9476 79.9383 85.7106C79.806 85.4705 79.6044 85.2889 79.3336 85.1658C79.0628 85.0397 78.7134 84.9766 78.2856 84.9766H76.716V93H75.0033ZM79.8876 88.7159L82.2281 93H80.3169L78.0179 88.7159H79.8876Z" fill="#222222"/>
<path id="ex-ex" fill-rule="evenodd" clip-rule="evenodd" d="M370 129V150C370 155.523 374.477 160 380 160H495C500.523 160 505 155.523 505 150V129H502V150C502 153.866 498.866 157 495 157H380C376.134 157 373 153.866 373 150V129H370Z" fill="#222222"/>
<path id="mem-mem" d="M637 150L636.987 150.515C636.728 155.628 632.628 159.728 627.515 159.987L627 160H512L511.485 159.987C506.372 159.728 502.272 155.628 502.013 150.515L502 150V129H505V150C505 153.866 508.134 157 512 157H627C630.866 157 634 153.866 634 150V129H637V150Z" fill="#222222"/>
<path id="mem-ex" fill-rule="evenodd" clip-rule="evenodd" d="M370 129L370 150C370 155.523 374.477 160 380 160H627C632.523 160 637 155.523 637 150V129H634V150C634 153.866 630.866 157 627 157H380C376.134 157 373 153.866 373 150V129H370Z" fill="#222222"/>
<path id="branch-fetch" fill-rule="evenodd" clip-rule="evenodd" d="M172 57L172 9.99997C172 4.47713 167.523 -3.0918e-05 162 -3.14119e-05L52 -4.12492e-05C46.4772 -4.17431e-05 42 4.4771 42 9.99996L42 57L45 57L45 9.99996C45 6.13396 48.134 2.99996 52 2.99996L162 2.99997C165.866 2.99997 169 6.13397 169 9.99997L169 57L172 57Z" fill="#222222"/>
<path id="branch-execute" fill-rule="evenodd" clip-rule="evenodd" d="M434 57L434 9.99995C434 4.47711 429.523 -4.91665e-05 424 -4.96493e-05L52 -8.21706e-05C46.4771 -8.26534e-05 42 4.47707 42 9.99992L42 57L45 57L45 9.99992C45 6.13392 48.134 2.99992 52 2.99992L424 2.99995C427.866 2.99995 431 6.13395 431 9.99995L431 57L434 57Z" fill="#222222"/>
<path id="arrow-data" d="M364 139L371.5 132L379 139" stroke="#222222" stroke-width="3" stroke-linecap="round" stroke-linejoin="round"/>
<path id="arrow-memory" d="M496 139L503.5 132L511 139" stroke="#222222" stroke-width="3" stroke-linecap="round" stroke-linejoin="round"/>
<path id="arrow-branch" d="M51 48L43.5 55L36 48" stroke="#222222" stroke-width="3" stroke-linecap="round" stroke-linejoin="round"/>
<path id="arrow-fetch" d="M178 49L170.5 56L163 49" stroke="#222222" stroke-width="3" stroke-linecap="round" stroke-linejoin="round"/>
</svg>
